<svg xmlns="http://www.w3.org/2000/svg" viewBox="0 0 512 512">
<defs>
  <linearGradient id="g" x1="0" y1="0" x2="1" y2="1">
    <stop offset="0" stop-color="#0B3A6E"/>
    <stop offset="0.62" stop-color="#1263D6"/>
    <stop offset="1" stop-color="#28A8FF"/>
  </linearGradient>
</defs>
<rect width="512" height="512" rx="116" fill="url(#g)"/>
<path d="M112 146c54-31 111-34 160-8v214c-49-26-106-23-160 8V146Z" fill="#fff"/>
<path d="M400 146c-54-31-111-34-160-8v214c49-26 106-23 160 8V146Z" fill="#E9F5FF"/>
<path d="M256 144v215" stroke="#0B3A6E" stroke-width="15" stroke-linecap="round"/>
<path d="M163 203h67M163 248h67M163 293h52" stroke="#1263D6" stroke-width="16" stroke-linecap="round"/>
<path d="M282 283l41-48 31 28 54-67" fill="none" stroke="#0B3A6E" stroke-width="18" stroke-linecap="round" stroke-linejoin="round"/>
<path d="M384 196h24v24" fill="none" stroke="#0B3A6E" stroke-width="18" stroke-linecap="round" stroke-linejoin="round"/>
<circle cx="256" cy="393" r="22" fill="#fff"/>
</svg>